%TF.GenerationSoftware,KiCad,Pcbnew,(6.0.5-0)*%
%TF.CreationDate,2022-07-11T16:51:09+02:00*%
%TF.ProjectId,kardV2,6b617264-5632-42e6-9b69-6361645f7063,v1.0.0*%
%TF.SameCoordinates,Original*%
%TF.FileFunction,Profile,NP*%
%FSLAX46Y46*%
G04 Gerber Fmt 4.6, Leading zero omitted, Abs format (unit mm)*
G04 Created by KiCad (PCBNEW (6.0.5-0)) date 2022-07-11 16:51:09*
%MOMM*%
%LPD*%
G01*
G04 APERTURE LIST*
%TA.AperFunction,Profile*%
%ADD10C,0.150000*%
%TD*%
G04 APERTURE END LIST*
D10*
X4092436Y9685022D02*
X15092436Y-9367537D01*
X5190512Y13783098D02*
X18814406Y21648857D01*
X19190513Y-10465613D02*
X29977481Y-4237754D01*
X14761310Y45366328D02*
X20212183Y25023390D01*
X16882630Y49040563D02*
X32337443Y53181668D01*
X49724108Y57840410D02*
X32337443Y53181668D01*
X68853156Y59860195D02*
X73802842Y41387713D01*
X49724108Y57840410D02*
X65178922Y61981515D01*
X31477481Y-3835830D02*
X115321521Y-3835830D01*
X118321521Y-835830D02*
X118321521Y36164170D01*
X115321521Y39164170D02*
X76700620Y39164170D01*
X15092436Y-9367537D02*
G75*
G03*
X19190513Y-10465614I2598077J1500000D01*
G01*
X31477481Y-3835830D02*
G75*
G03*
X29977481Y-4237754I0J-3000000D01*
G01*
X115321521Y-3835830D02*
G75*
G03*
X118321521Y-835830I0J3000000D01*
G01*
X118321521Y36164170D02*
G75*
G03*
X115321521Y39164170I-3000000J0D01*
G01*
X73802843Y41387713D02*
G75*
G03*
X76700620Y39164170I2897777J776457D01*
G01*
X68853156Y59860195D02*
G75*
G03*
X65178922Y61981515I-2897777J-776457D01*
G01*
X16882630Y49040563D02*
G75*
G03*
X14761309Y45366328I776457J-2897778D01*
G01*
X18814406Y21648857D02*
G75*
G03*
X20212183Y25023390I-1500000J2598076D01*
G01*
X5190512Y13783098D02*
G75*
G03*
X4092436Y9685022I1500000J-2598076D01*
G01*
M02*
