%TF.GenerationSoftware,KiCad,Pcbnew,(6.0.5-0)*%
%TF.CreationDate,2022-07-11T16:51:09+02:00*%
%TF.ProjectId,kardV2,6b617264-5632-42e6-9b69-6361645f7063,v1.0.0*%
%TF.SameCoordinates,Original*%
%TF.FileFunction,Soldermask,Bot*%
%TF.FilePolarity,Negative*%
%FSLAX46Y46*%
G04 Gerber Fmt 4.6, Leading zero omitted, Abs format (unit mm)*
G04 Created by KiCad (PCBNEW (6.0.5-0)) date 2022-07-11 16:51:09*
%MOMM*%
%LPD*%
G01*
G04 APERTURE LIST*
G04 Aperture macros list*
%AMRoundRect*
0 Rectangle with rounded corners*
0 $1 Rounding radius*
0 $2 $3 $4 $5 $6 $7 $8 $9 X,Y pos of 4 corners*
0 Add a 4 corners polygon primitive as box body*
4,1,4,$2,$3,$4,$5,$6,$7,$8,$9,$2,$3,0*
0 Add four circle primitives for the rounded corners*
1,1,$1+$1,$2,$3*
1,1,$1+$1,$4,$5*
1,1,$1+$1,$6,$7*
1,1,$1+$1,$8,$9*
0 Add four rect primitives between the rounded corners*
20,1,$1+$1,$2,$3,$4,$5,0*
20,1,$1+$1,$4,$5,$6,$7,0*
20,1,$1+$1,$6,$7,$8,$9,0*
20,1,$1+$1,$8,$9,$2,$3,0*%
%AMFreePoly0*
4,1,16,0.635355,1.035355,0.650000,1.000000,0.650000,-0.250000,0.635355,-0.285355,0.600000,-0.300000,-0.600000,-0.300000,-0.635355,-0.285355,-0.650000,-0.250000,-0.650000,1.000000,-0.635355,1.035355,-0.600000,1.050000,-0.564645,1.035355,0.000000,0.470710,0.564645,1.035355,0.600000,1.050000,0.635355,1.035355,0.635355,1.035355,$1*%
%AMFreePoly1*
4,1,14,0.635355,0.435355,0.650000,0.400000,0.650000,0.200000,0.635355,0.164645,0.035355,-0.435355,0.000000,-0.450000,-0.035355,-0.435355,-0.635355,0.164645,-0.650000,0.200000,-0.650000,0.400000,-0.635355,0.435355,-0.600000,0.450000,0.600000,0.450000,0.635355,0.435355,0.635355,0.435355,$1*%
G04 Aperture macros list end*
%ADD10C,0.250000*%
%ADD11C,0.100000*%
%ADD12C,3.529000*%
%ADD13C,1.801800*%
%ADD14C,3.100000*%
%ADD15RoundRect,0.050000X1.775833X-0.475833X0.475833X1.775833X-1.775833X0.475833X-0.475833X-1.775833X0*%
%ADD16C,2.132000*%
%ADD17RoundRect,0.050000X-0.919239X-1.592168X1.592168X-0.919239X0.919239X1.592168X-1.592168X0.919239X0*%
%ADD18RoundRect,0.050000X1.300000X-1.300000X1.300000X1.300000X-1.300000X1.300000X-1.300000X-1.300000X0*%
%ADD19C,1.700000*%
%ADD20RoundRect,0.050000X0.800000X0.800000X-0.800000X0.800000X-0.800000X-0.800000X0.800000X-0.800000X0*%
%ADD21FreePoly0,0.000000*%
%ADD22FreePoly1,0.000000*%
%ADD23FreePoly1,180.000000*%
%ADD24FreePoly0,180.000000*%
%ADD25C,1.000000*%
%ADD26RoundRect,0.050000X-0.350000X-0.750000X0.350000X-0.750000X0.350000X0.750000X-0.350000X0.750000X0*%
%ADD27RoundRect,0.050000X-0.500000X-0.400000X0.500000X-0.400000X0.500000X0.400000X-0.500000X0.400000X0*%
%ADD28RoundRect,0.050000X0.450000X0.850000X-0.450000X0.850000X-0.450000X-0.850000X0.450000X-0.850000X0*%
%ADD29C,1.100000*%
G04 APERTURE END LIST*
D10*
%TO.C,MCU1*%
X37228950Y7200291D02*
G75*
G03*
X37228950Y7200291I-125000J0D01*
G01*
X37228950Y5676291D02*
G75*
G03*
X37228950Y5676291I-125000J0D01*
G01*
X39768950Y7200291D02*
G75*
G03*
X39768950Y7200291I-125000J0D01*
G01*
X39768950Y5676291D02*
G75*
G03*
X39768950Y5676291I-125000J0D01*
G01*
X42308950Y7200291D02*
G75*
G03*
X42308950Y7200291I-125000J0D01*
G01*
X42308950Y5676291D02*
G75*
G03*
X42308950Y5676291I-125000J0D01*
G01*
X44848950Y7200291D02*
G75*
G03*
X44848950Y7200291I-125000J0D01*
G01*
X44848950Y5676291D02*
G75*
G03*
X44848950Y5676291I-125000J0D01*
G01*
X47388950Y7200291D02*
G75*
G03*
X47388950Y7200291I-125000J0D01*
G01*
X47388950Y5676291D02*
G75*
G03*
X47388950Y5676291I-125000J0D01*
G01*
X49928950Y7200291D02*
G75*
G03*
X49928950Y7200291I-125000J0D01*
G01*
X49928950Y5676291D02*
G75*
G03*
X49928950Y5676291I-125000J0D01*
G01*
X52468950Y7200291D02*
G75*
G03*
X52468950Y7200291I-125000J0D01*
G01*
X52468950Y5676291D02*
G75*
G03*
X52468950Y5676291I-125000J0D01*
G01*
X55008950Y7200291D02*
G75*
G03*
X55008950Y7200291I-125000J0D01*
G01*
X55008950Y5676291D02*
G75*
G03*
X55008950Y5676291I-125000J0D01*
G01*
X57548950Y7200291D02*
G75*
G03*
X57548950Y7200291I-125000J0D01*
G01*
X57548950Y5676291D02*
G75*
G03*
X57548950Y5676291I-125000J0D01*
G01*
X60088950Y7200291D02*
G75*
G03*
X60088950Y7200291I-125000J0D01*
G01*
X60088950Y5676291D02*
G75*
G03*
X60088950Y5676291I-125000J0D01*
G01*
X62628950Y5676291D02*
G75*
G03*
X62628950Y5676291I-125000J0D01*
G01*
X62628950Y7200291D02*
G75*
G03*
X62628950Y7200291I-125000J0D01*
G01*
X65168950Y7200291D02*
G75*
G03*
X65168950Y7200291I-125000J0D01*
G01*
X65168950Y5676291D02*
G75*
G03*
X65168950Y5676291I-125000J0D01*
G01*
G36*
X37611950Y342291D02*
G01*
X36595950Y342291D01*
X36595950Y1358291D01*
X37611950Y1358291D01*
X37611950Y342291D01*
G37*
D11*
X37611950Y342291D02*
X36595950Y342291D01*
X36595950Y1358291D01*
X37611950Y1358291D01*
X37611950Y342291D01*
G36*
X40151950Y342291D02*
G01*
X39135950Y342291D01*
X39135950Y1358291D01*
X40151950Y1358291D01*
X40151950Y342291D01*
G37*
X40151950Y342291D02*
X39135950Y342291D01*
X39135950Y1358291D01*
X40151950Y1358291D01*
X40151950Y342291D01*
G36*
X42691950Y342291D02*
G01*
X41675950Y342291D01*
X41675950Y1358291D01*
X42691950Y1358291D01*
X42691950Y342291D01*
G37*
X42691950Y342291D02*
X41675950Y342291D01*
X41675950Y1358291D01*
X42691950Y1358291D01*
X42691950Y342291D01*
G36*
X45231950Y342291D02*
G01*
X44215950Y342291D01*
X44215950Y1358291D01*
X45231950Y1358291D01*
X45231950Y342291D01*
G37*
X45231950Y342291D02*
X44215950Y342291D01*
X44215950Y1358291D01*
X45231950Y1358291D01*
X45231950Y342291D01*
G36*
X47771950Y342291D02*
G01*
X46755950Y342291D01*
X46755950Y1358291D01*
X47771950Y1358291D01*
X47771950Y342291D01*
G37*
X47771950Y342291D02*
X46755950Y342291D01*
X46755950Y1358291D01*
X47771950Y1358291D01*
X47771950Y342291D01*
G36*
X50311950Y342291D02*
G01*
X49295950Y342291D01*
X49295950Y1358291D01*
X50311950Y1358291D01*
X50311950Y342291D01*
G37*
X50311950Y342291D02*
X49295950Y342291D01*
X49295950Y1358291D01*
X50311950Y1358291D01*
X50311950Y342291D01*
G36*
X52851950Y342291D02*
G01*
X51835950Y342291D01*
X51835950Y1358291D01*
X52851950Y1358291D01*
X52851950Y342291D01*
G37*
X52851950Y342291D02*
X51835950Y342291D01*
X51835950Y1358291D01*
X52851950Y1358291D01*
X52851950Y342291D01*
G36*
X55391950Y342291D02*
G01*
X54375950Y342291D01*
X54375950Y1358291D01*
X55391950Y1358291D01*
X55391950Y342291D01*
G37*
X55391950Y342291D02*
X54375950Y342291D01*
X54375950Y1358291D01*
X55391950Y1358291D01*
X55391950Y342291D01*
G36*
X57931950Y342291D02*
G01*
X56915950Y342291D01*
X56915950Y1358291D01*
X57931950Y1358291D01*
X57931950Y342291D01*
G37*
X57931950Y342291D02*
X56915950Y342291D01*
X56915950Y1358291D01*
X57931950Y1358291D01*
X57931950Y342291D01*
G36*
X60471950Y342291D02*
G01*
X59455950Y342291D01*
X59455950Y1358291D01*
X60471950Y1358291D01*
X60471950Y342291D01*
G37*
X60471950Y342291D02*
X59455950Y342291D01*
X59455950Y1358291D01*
X60471950Y1358291D01*
X60471950Y342291D01*
G36*
X63011950Y342291D02*
G01*
X61995950Y342291D01*
X61995950Y1358291D01*
X63011950Y1358291D01*
X63011950Y342291D01*
G37*
X63011950Y342291D02*
X61995950Y342291D01*
X61995950Y1358291D01*
X63011950Y1358291D01*
X63011950Y342291D01*
G36*
X65551950Y342291D02*
G01*
X64535950Y342291D01*
X64535950Y1358291D01*
X65551950Y1358291D01*
X65551950Y342291D01*
G37*
X65551950Y342291D02*
X64535950Y342291D01*
X64535950Y1358291D01*
X65551950Y1358291D01*
X65551950Y342291D01*
G36*
X37611950Y11518291D02*
G01*
X36595950Y11518291D01*
X36595950Y12534291D01*
X37611950Y12534291D01*
X37611950Y11518291D01*
G37*
X37611950Y11518291D02*
X36595950Y11518291D01*
X36595950Y12534291D01*
X37611950Y12534291D01*
X37611950Y11518291D01*
G36*
X40151950Y11518291D02*
G01*
X39135950Y11518291D01*
X39135950Y12534291D01*
X40151950Y12534291D01*
X40151950Y11518291D01*
G37*
X40151950Y11518291D02*
X39135950Y11518291D01*
X39135950Y12534291D01*
X40151950Y12534291D01*
X40151950Y11518291D01*
G36*
X42691950Y11518291D02*
G01*
X41675950Y11518291D01*
X41675950Y12534291D01*
X42691950Y12534291D01*
X42691950Y11518291D01*
G37*
X42691950Y11518291D02*
X41675950Y11518291D01*
X41675950Y12534291D01*
X42691950Y12534291D01*
X42691950Y11518291D01*
G36*
X45231950Y11518291D02*
G01*
X44215950Y11518291D01*
X44215950Y12534291D01*
X45231950Y12534291D01*
X45231950Y11518291D01*
G37*
X45231950Y11518291D02*
X44215950Y11518291D01*
X44215950Y12534291D01*
X45231950Y12534291D01*
X45231950Y11518291D01*
G36*
X47771950Y11518291D02*
G01*
X46755950Y11518291D01*
X46755950Y12534291D01*
X47771950Y12534291D01*
X47771950Y11518291D01*
G37*
X47771950Y11518291D02*
X46755950Y11518291D01*
X46755950Y12534291D01*
X47771950Y12534291D01*
X47771950Y11518291D01*
G36*
X50311950Y11518291D02*
G01*
X49295950Y11518291D01*
X49295950Y12534291D01*
X50311950Y12534291D01*
X50311950Y11518291D01*
G37*
X50311950Y11518291D02*
X49295950Y11518291D01*
X49295950Y12534291D01*
X50311950Y12534291D01*
X50311950Y11518291D01*
G36*
X52851950Y11518291D02*
G01*
X51835950Y11518291D01*
X51835950Y12534291D01*
X52851950Y12534291D01*
X52851950Y11518291D01*
G37*
X52851950Y11518291D02*
X51835950Y11518291D01*
X51835950Y12534291D01*
X52851950Y12534291D01*
X52851950Y11518291D01*
G36*
X55391950Y11518291D02*
G01*
X54375950Y11518291D01*
X54375950Y12534291D01*
X55391950Y12534291D01*
X55391950Y11518291D01*
G37*
X55391950Y11518291D02*
X54375950Y11518291D01*
X54375950Y12534291D01*
X55391950Y12534291D01*
X55391950Y11518291D01*
G36*
X57931950Y11518291D02*
G01*
X56915950Y11518291D01*
X56915950Y12534291D01*
X57931950Y12534291D01*
X57931950Y11518291D01*
G37*
X57931950Y11518291D02*
X56915950Y11518291D01*
X56915950Y12534291D01*
X57931950Y12534291D01*
X57931950Y11518291D01*
G36*
X60471950Y11518291D02*
G01*
X59455950Y11518291D01*
X59455950Y12534291D01*
X60471950Y12534291D01*
X60471950Y11518291D01*
G37*
X60471950Y11518291D02*
X59455950Y11518291D01*
X59455950Y12534291D01*
X60471950Y12534291D01*
X60471950Y11518291D01*
G36*
X63011950Y11518291D02*
G01*
X61995950Y11518291D01*
X61995950Y12534291D01*
X63011950Y12534291D01*
X63011950Y11518291D01*
G37*
X63011950Y11518291D02*
X61995950Y11518291D01*
X61995950Y12534291D01*
X63011950Y12534291D01*
X63011950Y11518291D01*
G36*
X65551950Y11518291D02*
G01*
X64535950Y11518291D01*
X64535950Y12534291D01*
X65551950Y12534291D01*
X65551950Y11518291D01*
G37*
X65551950Y11518291D02*
X64535950Y11518291D01*
X64535950Y12534291D01*
X65551950Y12534291D01*
X65551950Y11518291D01*
%TD*%
D12*
%TO.C,S1*%
X17386665Y4658743D03*
D13*
X14636665Y9421883D03*
X20136665Y-104397D03*
D14*
X11639070Y7113870D03*
X12233814Y1683743D03*
D15*
X13871314Y-1152490D03*
X10001570Y9950103D03*
D14*
X16639070Y-1546384D03*
X12233814Y1683743D03*
%TD*%
D12*
%TO.C,S2*%
X17386665Y4658743D03*
D13*
X20136665Y-104397D03*
X14636665Y9421883D03*
D16*
X23177562Y2228616D03*
X22496215Y7608743D03*
X18177562Y10888870D03*
X22496215Y7608743D03*
%TD*%
D12*
%TO.C,S3*%
X30373406Y25738225D03*
D13*
X35685998Y27161730D03*
X25060814Y24314720D03*
D14*
X34232464Y30654542D03*
X28833433Y31485484D03*
D17*
X25670026Y30637851D03*
X37395871Y31502174D03*
D14*
X24573205Y28066352D03*
X28833433Y31485484D03*
%TD*%
D12*
%TO.C,S4*%
X30373406Y25738225D03*
D13*
X25060814Y24314720D03*
X35685998Y27161730D03*
D16*
X26527289Y20773612D03*
X31900438Y20039263D03*
X36186548Y23361802D03*
X31900438Y20039263D03*
%TD*%
D12*
%TO.C,S5*%
X25973482Y42158964D03*
D13*
X31286074Y43582469D03*
X20660890Y40735459D03*
D14*
X29832540Y47075281D03*
X24433509Y47906223D03*
D17*
X21270102Y47058590D03*
X32995947Y47922913D03*
D14*
X20173281Y44487091D03*
X24433509Y47906223D03*
%TD*%
D12*
%TO.C,S6*%
X25973482Y42158964D03*
D13*
X20660890Y40735459D03*
X31286074Y43582469D03*
D16*
X22127365Y37194351D03*
X27500514Y36460002D03*
X31786624Y39782541D03*
X27500514Y36460002D03*
%TD*%
D12*
%TO.C,S7*%
X47760071Y30396968D03*
D13*
X53072663Y31820473D03*
X42447479Y28973463D03*
D14*
X51619129Y35313285D03*
X46220098Y36144227D03*
D17*
X43056691Y35296594D03*
X54782536Y36160917D03*
D14*
X41959870Y32725095D03*
X46220098Y36144227D03*
%TD*%
D12*
%TO.C,S8*%
X47760071Y30396968D03*
D13*
X42447479Y28973463D03*
X53072663Y31820473D03*
D16*
X43913954Y25432355D03*
X49287103Y24698006D03*
X53573213Y28020545D03*
X49287103Y24698006D03*
%TD*%
D12*
%TO.C,S9*%
X43360147Y46817707D03*
D13*
X48672739Y48241212D03*
X38047555Y45394202D03*
D14*
X47219205Y51734024D03*
X41820174Y52564966D03*
D17*
X38656767Y51717333D03*
X50382612Y52581656D03*
D14*
X37559946Y49145834D03*
X41820174Y52564966D03*
%TD*%
D12*
%TO.C,S10*%
X43360147Y46817707D03*
D13*
X38047555Y45394202D03*
X48672739Y48241212D03*
D16*
X39514030Y41853094D03*
X44887179Y41118745D03*
X49173289Y44441284D03*
X44887179Y41118745D03*
%TD*%
D12*
%TO.C,S11*%
X65146736Y35055710D03*
D13*
X70459328Y36479215D03*
X59834144Y33632205D03*
D14*
X69005794Y39972027D03*
X63606763Y40802969D03*
D17*
X60443356Y39955336D03*
X72169201Y40819659D03*
D14*
X59346535Y37383837D03*
X63606763Y40802969D03*
%TD*%
D12*
%TO.C,S12*%
X65146736Y35055710D03*
D13*
X59834144Y33632205D03*
X70459328Y36479215D03*
D16*
X61300619Y30091097D03*
X66673768Y29356748D03*
X70959878Y32679287D03*
X66673768Y29356748D03*
%TD*%
D12*
%TO.C,S13*%
X60746812Y51476449D03*
D13*
X66059404Y52899954D03*
X55434220Y50052944D03*
D14*
X64605870Y56392766D03*
X59206839Y57223708D03*
D17*
X56043432Y56376075D03*
X67769277Y57240398D03*
D14*
X54946611Y53804576D03*
X59206839Y57223708D03*
%TD*%
D12*
%TO.C,S14*%
X60746812Y51476449D03*
D13*
X55434220Y50052944D03*
X66059404Y52899954D03*
D16*
X56900695Y46511836D03*
X62273844Y45777487D03*
X66559954Y49100026D03*
X62273844Y45777487D03*
%TD*%
D12*
%TO.C,S15*%
X91762954Y24587809D03*
D13*
X91762954Y30087809D03*
X91762954Y19087809D03*
D14*
X88012954Y29587809D03*
X85812954Y24587809D03*
D18*
X85812954Y21312809D03*
X88012954Y32862809D03*
D14*
X88012954Y19587809D03*
X85812954Y24587809D03*
%TD*%
D12*
%TO.C,S16*%
X91762954Y24587809D03*
D13*
X91762954Y19087809D03*
X91762954Y30087809D03*
D16*
X95562954Y19587809D03*
X97662954Y24587809D03*
X95562954Y29587809D03*
X97662954Y24587809D03*
%TD*%
D12*
%TO.C,S17*%
X108741388Y24588164D03*
D13*
X108741388Y30088164D03*
X108741388Y19088164D03*
D14*
X104991388Y29588164D03*
X102791388Y24588164D03*
D18*
X102791388Y21313164D03*
X104991388Y32863164D03*
D14*
X104991388Y19588164D03*
X102791388Y24588164D03*
%TD*%
D12*
%TO.C,S18*%
X108741388Y24588164D03*
D13*
X108741388Y19088164D03*
X108741388Y30088164D03*
D16*
X112541388Y19588164D03*
X114641388Y24588164D03*
X112541388Y29588164D03*
X114641388Y24588164D03*
%TD*%
D19*
%TO.C,MCU1*%
X65043950Y14058291D03*
X62503950Y14058291D03*
X59963950Y14058291D03*
X57423950Y14058291D03*
X54883950Y14058291D03*
X52343950Y14058291D03*
X49803950Y14058291D03*
X47263950Y14058291D03*
X44723950Y14058291D03*
X42183950Y14058291D03*
X39643950Y14058291D03*
X37103950Y14058291D03*
X37103950Y-1181709D03*
X39643950Y-1181709D03*
X42183950Y-1181709D03*
X44723950Y-1181709D03*
X47263950Y-1181709D03*
X49803950Y-1181709D03*
X52343950Y-1181709D03*
X54883950Y-1181709D03*
X57423950Y-1181709D03*
X59963950Y-1181709D03*
X62503950Y-1181709D03*
X65043950Y-1181709D03*
D20*
X65043950Y-1181709D03*
D21*
X65043950Y11264291D03*
D22*
X65043950Y12280291D03*
X62503950Y12280291D03*
D21*
X62503950Y11264291D03*
D22*
X59963950Y12280291D03*
D21*
X59963950Y11264291D03*
D22*
X57423950Y12280291D03*
D21*
X57423950Y11264291D03*
D22*
X54883950Y12280291D03*
D21*
X54883950Y11264291D03*
D22*
X52343950Y12280291D03*
D21*
X52343950Y11264291D03*
D22*
X49803950Y12280291D03*
D21*
X49803950Y11264291D03*
D22*
X47263950Y12280291D03*
D21*
X47263950Y11264291D03*
D22*
X44723950Y12280291D03*
D21*
X44723950Y11264291D03*
D22*
X42183950Y12280291D03*
D21*
X42183950Y11264291D03*
D22*
X39643950Y12280291D03*
D21*
X39643950Y11264291D03*
D22*
X37103950Y12280291D03*
D21*
X37103950Y11264291D03*
D23*
X65043950Y596291D03*
D24*
X65043950Y1612291D03*
X62503950Y1612291D03*
D23*
X62503950Y596291D03*
D24*
X59963950Y1612291D03*
D23*
X59963950Y596291D03*
D24*
X57423950Y1612291D03*
D23*
X57423950Y596291D03*
D24*
X54883950Y1612291D03*
D23*
X54883950Y596291D03*
D24*
X52343950Y1612291D03*
D23*
X52343950Y596291D03*
D24*
X49803950Y1612291D03*
D23*
X49803950Y596291D03*
D24*
X47263950Y1612291D03*
D23*
X47263950Y596291D03*
D24*
X44723950Y1612291D03*
D23*
X44723950Y596291D03*
D24*
X42183950Y1612291D03*
D23*
X42183950Y596291D03*
D24*
X39643950Y1612291D03*
D23*
X39643950Y596291D03*
D24*
X37103950Y1612291D03*
D23*
X37103950Y596291D03*
%TD*%
D25*
%TO.C,*%
X98941388Y-741836D03*
X101941388Y-741836D03*
X98941388Y-741836D03*
X101941388Y-741836D03*
D26*
X102691388Y1018164D03*
X99691388Y1018164D03*
X98191388Y1018164D03*
D27*
X104091388Y-1841836D03*
X96791388Y-1841836D03*
X96791388Y368164D03*
X104091388Y368164D03*
%TD*%
D28*
%TO.C,*%
X70062954Y-912191D03*
X73462954Y-912191D03*
%TD*%
D29*
%TO.C,*%
X32470416Y15113041D03*
X33970416Y15113041D03*
%TD*%
M02*
