M48
; DRILL file {KiCad (6.0.5-0)} date 2022 July 11, Monday 16:51:07
; FORMAT={-:-/ absolute / inch / decimal}
; #@! TF.CreationDate,2022-07-11T16:51:07+02:00
; #@! TF.GenerationSoftware,Kicad,Pcbnew,(6.0.5-0)
; #@! TF.FileFunction,NonPlated,1,2,NPTH
FMAT,2
INCH
; #@! TA.AperFunction,NonPlated,NPTH,ComponentDrill
T1C0.0354
; #@! TA.AperFunction,NonPlated,NPTH,ComponentDrill
T2C0.0670
; #@! TA.AperFunction,NonPlated,NPTH,ComponentDrill
T3C0.1181
; #@! TA.AperFunction,NonPlated,NPTH,ComponentDrill
T4C0.1350
%
G90
G05
T1
X3.8953Y-0.0292
X3.8953Y-0.0292
X4.0134Y-0.0292
X4.0134Y-0.0292
T2
X0.5762Y0.3709
X0.5762Y0.3709
X0.7928Y-0.0041
X0.7928Y-0.0041
X0.8134Y1.6038
X0.8134Y1.6038
X0.9866Y0.9573
X0.9866Y0.9573
X1.2317Y1.7158
X1.2317Y1.7158
X1.405Y1.0694
X1.405Y1.0694
X1.4979Y1.7872
X1.4979Y1.7872
X1.6712Y1.1407
X1.6712Y1.1407
X1.9162Y1.8993
X1.9162Y1.8993
X2.0895Y1.2528
X2.0895Y1.2528
X2.1824Y1.9706
X2.1824Y1.9706
X2.3557Y1.3241
X2.3557Y1.3241
X2.6008Y2.0827
X2.6008Y2.0827
X2.774Y1.4362
X2.774Y1.4362
X3.6127Y1.1846
X3.6127Y1.1846
X3.6127Y0.7515
X3.6127Y0.7515
X4.2812Y1.1846
X4.2812Y1.1846
X4.2812Y0.7515
X4.2812Y0.7515
T3
X0.4582Y0.2801
X0.4816Y0.0663
X0.4816Y0.0663
X0.6551Y-0.0609
X0.7942Y1.7515
X0.9619Y1.8861
X0.9619Y1.8861
X0.9674Y1.105
X1.1352Y1.2396
X1.1352Y1.2396
X1.1745Y1.8534
X1.3477Y1.2069
X1.4787Y1.9349
X1.6465Y2.0695
X1.6465Y2.0695
X1.652Y1.2884
X1.8197Y1.423
X1.8197Y1.423
X1.859Y2.0368
X2.0322Y1.3903
X2.1633Y2.1183
X2.331Y2.2529
X2.331Y2.2529
X2.3365Y1.4718
X2.5042Y1.6064
X2.5042Y1.6064
X2.5435Y2.2202
X2.7168Y1.5737
X3.3785Y0.968
X3.3785Y0.968
X3.4651Y1.1649
X3.4651Y0.7712
X4.0469Y0.968
X4.0469Y0.968
X4.1335Y1.1649
X4.1335Y0.7712
T4
X0.6845Y0.1834
X0.6845Y0.1834
X1.0226Y1.6598
X1.0226Y1.6598
X1.1958Y1.0133
X1.1958Y1.0133
X1.7071Y1.8432
X1.7071Y1.8432
X1.8803Y1.1967
X1.8803Y1.1967
X2.3916Y2.0266
X2.3916Y2.0266
X2.5648Y1.3801
X2.5648Y1.3801
X3.6127Y0.968
X3.6127Y0.968
X4.2812Y0.968
X4.2812Y0.968
T0
M30
