M48
; DRILL file {KiCad (6.0.5-0)} date 2022 July 11, Monday 16:51:07
; FORMAT={-:-/ absolute / inch / decimal}
; #@! TF.CreationDate,2022-07-11T16:51:07+02:00
; #@! TF.GenerationSoftware,Kicad,Pcbnew,(6.0.5-0)
; #@! TF.FileFunction,Plated,1,2,PTH
FMAT,2
INCH
; #@! TA.AperFunction,Plated,PTH,ComponentDrill
T1C0.0118
; #@! TA.AperFunction,Plated,PTH,ComponentDrill
T2C0.0157
; #@! TA.AperFunction,Plated,PTH,ComponentDrill
T3C0.0276
; #@! TA.AperFunction,Plated,PTH,ComponentDrill
T4C0.0433
; #@! TA.AperFunction,Plated,PTH,ComponentDrill
T5C0.0500
%
G90
G05
T1
X2.7072Y0.6924
X2.7958Y0.4956
X3.1403Y0.8499
X3.219Y0.6137
T2
X1.4608Y0.2835
X1.4608Y0.2235
X1.5608Y0.2835
X1.5608Y0.2235
X1.6608Y0.2835
X1.6608Y0.2235
X1.7608Y0.2835
X1.7608Y0.2235
X1.8608Y0.2835
X1.8608Y0.2235
X1.9608Y0.2835
X1.9608Y0.2235
X2.0608Y0.2835
X2.0608Y0.2235
X2.1608Y0.2835
X2.1608Y0.2235
X2.2608Y0.2835
X2.2608Y0.2235
X2.3608Y0.2835
X2.3608Y0.2235
X2.4608Y0.2835
X2.4608Y0.2235
X2.5608Y0.2835
X2.5608Y0.2235
T3
X1.2784Y0.595
X1.3374Y0.595
T4
X1.4608Y0.5535
X1.4608Y-0.0465
X1.5608Y0.5535
X1.5608Y-0.0465
X1.6608Y0.5535
X1.6608Y-0.0465
X1.7608Y0.5535
X1.7608Y-0.0465
X1.8608Y0.5535
X1.8608Y-0.0465
X1.9608Y0.5535
X1.9608Y-0.0465
X2.0608Y0.5535
X2.0608Y-0.0465
X2.1608Y0.5535
X2.1608Y-0.0465
X2.2608Y0.5535
X2.2608Y-0.0465
X2.3608Y0.5535
X2.3608Y-0.0465
X2.4608Y0.5535
X2.4608Y-0.0465
X2.5608Y0.5535
X2.5608Y0.5535
X2.5608Y-0.0465
X2.5608Y-0.0465
T5
X0.7157Y0.4287
X0.8712Y1.4643
X0.8857Y0.2996
X0.8857Y0.2996
X0.9125Y0.0877
X1.0444Y0.8179
X1.0827Y1.4354
X1.0827Y1.4354
X1.2514Y1.5662
X1.2559Y0.7889
X1.2559Y0.7889
X1.4247Y0.9198
X1.5557Y1.6478
X1.7289Y1.0013
X1.7672Y1.6188
X1.7672Y1.6188
X1.936Y1.7497
X1.9404Y0.9724
X1.9404Y0.9724
X2.1092Y1.1032
X2.2402Y1.8312
X2.4134Y1.1847
X2.4517Y1.8023
X2.4517Y1.8023
X2.6205Y1.9331
X2.625Y1.1558
X2.625Y1.1558
X2.7937Y1.2866
X3.7623Y1.1649
X3.7623Y0.7712
X3.845Y0.968
X3.845Y0.968
X4.4308Y1.1649
X4.4308Y0.7712
X4.5134Y0.968
X4.5134Y0.968
T0
M30
