0
SECTION
2
HEADER
9
$INSUNITS
70
4
0
ENDSEC
0
SECTION
2
TABLES
0
TABLE
2
LTYPE
0
LTYPE
72
65
70
64
2
CONTINUOUS
3
______
73
0
40
0
0
ENDTAB
0
TABLE
2
LAYER
0
ENDTAB
0
ENDSEC
0
SECTION
2
ENTITIES
0
LINE
8
0
10
28.9063745
20
1.2060205
11
20.1563745
21
16.3614651
0
LINE
8
0
10
20.1563745
20
16.3614651
11
5.8669553
21
8.1114651
0
LINE
8
0
10
5.8669553
20
8.1114651
11
14.6169553
21
-7.0439795
0
LINE
8
0
10
14.6169553
20
-7.0439795
11
28.9063745
21
1.2060205
0
LINE
8
0
10
24.0568121
20
15.50467
11
40.9605141
21
20.0340033
0
LINE
8
0
10
40.9605141
20
20.0340033
11
36.6899999
21
35.9717794
0
LINE
8
0
10
36.6899999
20
35.9717794
11
19.7862979
21
31.4424461
0
LINE
8
0
10
19.7862979
20
31.4424461
11
24.0568121
21
15.50467
0
LINE
8
0
10
19.6568883
20
31.925409
11
36.5605903
21
36.4547423
0
LINE
8
0
10
36.5605903
20
36.4547423
11
32.2900761
21
52.3925184
0
LINE
8
0
10
32.2900761
20
52.3925184
11
15.3863741
21
47.8631851
0
LINE
8
0
10
15.3863741
20
47.8631851
11
19.6568883
21
31.925409
0
LINE
8
0
10
41.443477
20
20.1634128
11
58.347179
21
24.6927461
0
LINE
8
0
10
58.347179
20
24.6927461
11
54.0766648
21
40.6305222
0
LINE
8
0
10
54.0766648
20
40.6305222
11
37.1729628
21
36.1011889
0
LINE
8
0
10
37.1729628
20
36.1011889
11
41.443477
21
20.1634128
0
LINE
8
0
10
37.0435532
20
36.5841518
11
53.9472552
21
41.1134851
0
LINE
8
0
10
53.9472552
20
41.1134851
11
49.676741
21
57.0512612
0
LINE
8
0
10
49.676741
20
57.0512612
11
32.773039
21
52.5219279
0
LINE
8
0
10
32.773039
20
52.5219279
11
37.0435532
21
36.5841518
0
LINE
8
0
10
58.8301418
20
24.8221556
11
75.7338438
21
29.3514889
0
LINE
8
0
10
75.7338438
20
29.3514889
11
71.4633296
21
45.289265
0
LINE
8
0
10
71.4633296
20
45.289265
11
54.5596276
21
40.7599317
0
LINE
8
0
10
54.5596276
20
40.7599317
11
58.8301418
21
24.8221556
0
LINE
8
0
10
54.4302181
20
41.2428946
11
71.3339201
21
45.7722279
0
LINE
8
0
10
71.3339201
20
45.7722279
11
67.0634059
21
61.710004
0
LINE
8
0
10
67.0634059
20
61.710004
11
50.1597039
21
57.1806707
0
LINE
8
0
10
50.1597039
20
57.1806707
11
54.4302181
21
41.2428946
0
LINE
8
0
10
100.0129535
20
15.8378093
11
100.0129535
21
33.3378093
0
LINE
8
0
10
100.0129535
20
33.3378093
11
83.5129535
21
33.3378093
0
LINE
8
0
10
83.5129535
20
33.3378093
11
83.5129535
21
15.8378093
0
LINE
8
0
10
83.5129535
20
15.8378093
11
100.0129535
21
15.8378093
0
LINE
8
0
10
116.9913879
20
15.8381636
11
116.9913879
21
33.3381636
0
LINE
8
0
10
116.9913879
20
33.3381636
11
100.4913879
21
33.3381636
0
LINE
8
0
10
100.4913879
20
33.3381636
11
100.4913879
21
15.8381636
0
LINE
8
0
10
100.4913879
20
15.8381636
11
116.9913879
21
15.8381636
0
ENDSEC
0
EOF